<?xml version="1.0" standalone="no"?>
<!DOCTYPE svg PUBLIC "-//W3C//DTD SVG 20010904//EN"
 "http://www.w3.org/TR/2001/REC-SVG-20010904/DTD/svg10.dtd">
<svg version="1.0" xmlns="http://www.w3.org/2000/svg"
 width="400.000000pt" height="300.000000pt" viewBox="0 0 400.000000 300.000000"
 preserveAspectRatio="xMidYMid meet">
<metadata>
Created by potrace 1.16, written by Peter Selinger 2001-2019
</metadata>
<g transform="translate(0.000000,300.000000) scale(0.100000,-0.100000)"
fill="#000000" stroke="none">
<path d="M1380 1838 c-55 -45 -69 -52 -102 -49 -25 2 -38 -2 -38 -10 0 -7 23
-55 51 -107 l50 -95 -21 -22 -21 -22 28 -29 c15 -16 48 -46 72 -66 39 -33 42
-39 30 -54 -11 -14 -11 -18 6 -30 33 -25 128 -56 200 -67 70 -10 189 -2 180
12 -2 5 6 6 18 4 14 -3 48 12 92 39 l70 44 70 -44 c44 -27 78 -41 92 -39 12 2
20 1 18 -4 -9 -14 110 -22 180 -12 72 11 167 42 200 67 17 12 18 16 5 31 -12
15 -12 19 1 29 108 81 132 115 104 146 -15 17 -13 24 35 112 27 52 50 101 50
108 0 9 -12 11 -46 6 -44 -6 -49 -4 -111 46 l-65 51 -77 -37 c-103 -51 -377
-211 -423 -247 -32 -25 -37 -27 -49 -13 -24 29 -504 304 -530 304 -2 0 -33
-23 -69 -52z m1248 -220 c-75 -134 -259 -257 -370 -246 -29 3 -22 8 77 62 60
33 115 59 122 59 10 0 10 4 1 14 -6 7 -8 16 -5 20 8 7 190 131 195 132 2 1 -7
-18 -20 -41z m-1177 -39 c90 -60 90 -61 72 -82 -10 -11 -12 -17 -6 -13 8 4 58
-17 120 -51 80 -43 102 -59 85 -61 -68 -10 -215 68 -294 157 -43 49 -84 111
-73 111 3 0 46 -27 96 -61z"/>
<path d="M1891 1299 c-64 -41 -175 -63 -275 -55 -45 3 -91 9 -102 12 -25 7
-39 -24 -50 -107 -6 -48 -6 -49 25 -60 20 -7 31 -18 31 -30 0 -21 11 -24 27
-8 7 7 30 2 78 -17 l68 -27 29 34 c58 69 220 280 217 283 -2 2 -24 -10 -48
-25z"/>
<path d="M2050 1324 c0 -14 223 -294 243 -306 7 -3 39 5 72 18 46 19 64 23 77
15 25 -15 28 -14 28 10 0 14 10 24 31 32 30 12 31 13 25 59 -4 25 -11 61 -18
78 -8 26 -15 31 -32 26 -11 -3 -57 -9 -102 -12 -101 -8 -211 14 -278 56 -25
16 -46 27 -46 24z"/>
</g>
</svg>
